<?xml version="1.0" encoding="UTF-8"?>
<svg id="Layer_5" data-name="Layer 5" xmlns="http://www.w3.org/2000/svg" viewBox="0 0 149.09 144.64">
  <defs>
    <style>
      .cls-1 {
        fill: #ff7c1a;
      }

      .cls-2 {
        fill: none;
        stroke: #fff;
        stroke-linecap: round;
        stroke-linejoin: round;
        stroke-width: .5px;
      }
    </style>
  </defs>
  <path class="cls-1" d="m79.87,22.52c4.39,1.12,3.07,1.83,3.07,1.83,0,1.45-.59,20.38-1.31,25.4-.38,2.63-1.38,11.27-1.7,19.68-.26,7,.09,11.93,1.13,16.93.53,2.54,3.43,11.16,7.1,13.81,3.13,2.25,6.52,4.38,10.24,5.21,3.74.83,6.66,1.12,8.82,2.07s3.46,1.87,4.3,4.93c.29,1.06.14,2.81.25,4.01.59.39.67.82.67.82,0,0,.06,1.75.04,2.1-.51,1.09-2.63,2.63-7.61,4.33-3.9,1.33-11.35,2.52-17.51,2.5-8.44-.03-15.84-3.33-18.49-4.29l.07-1.79-5.53-1.76-2.27.63s-4.07-.56-6.85-1.37c-2.59-.75-3.63-1.87-3.63-1.87v-2.23s-.39-2.96-.39-2.96c0,0-.5-3.96.21-7.33.54-2.58,1.12-7.85,1.12-11.26,0-3.41-.84-15.69-2.53-24.36-1.69-8.67-2.78-38.1-2.78-43.59,0-2.11,0-3.59,0-3.59,0,0,6.87-1.72,17.57-.7,6.25.59,11.6,1.73,15.99,2.86Z"/>
  <path class="cls-2" d="m82.15,24.59c-2.41,1.45-19.93.56-26.02-.6-5.37-1.02-8.66-2.61-9.82-3.62"/>
  <path class="cls-2" d="m110.74,116.2c-1.72,2.88-13.48,6.19-22.24,6.13-10.62-.08-15.87-2.82-18.96-3.94-3.09-1.12-8.63-3.29-8.63-3.29,0,0-10.34-4.11-10.61-4.59"/>
  <path class="cls-2" d="m108.86,109.37c-1.41,2.06-11.06,4.73-19.03,5.15-10.6.56-17.2-1.83-20.3-2.95-3.09-1.12-7.91-3-7.91-3,0,0-3.13-.99-6.03-2.17s-5.35-3.4-5.35-3.4"/>
  <path class="cls-2" d="m95.77,117.26s2.3-.44,5.39-1.06c7.7-1.55,9.57-4.34,9.57-4.34"/>
  <path class="cls-2" d="m93.75,117.26s-4.6.28-6.38.28"/>
  <line class="cls-2" x1="73.29" y1="116.88" x2="68.79" y2="115.14"/>
  <path class="cls-2" d="m66.06,114.06s-14.77-5.26-15.77-7.21"/>
  <path class="cls-2" d="m79.93,81.85c-3.81-.04-7.3.91-8.37,3.63-1.26,3.22-2.15,7.91-2.15,7.91,0,0-8.45-.28-12.37-3.37-3.25-2.57-4.92-5.05-6.42-9.96"/>
  <path class="cls-2" d="m48.78,29.41c0,4.15.34,16.7,1.46,27.3,1.06,10.02,3.21,21.04,3.59,22.78"/>
  <path class="cls-2" d="m82.51,28.56c-3.05.87-10.44.94-13.76.8-9.13-.4-14.76-1.52-17.6-2.29-3.09-.84-4.84-2.35-4.84-2.35"/>
  <path class="cls-2" d="m84.03,100.59c1.29,1.28,2.71,2.2,4.21,2.71"/>
  <path class="cls-2" d="m78.36,86.73c.41,5.35,2.22,9.82,4.74,12.84"/>
  <path class="cls-2" d="m78.47,50.76c-.06,1.59-.97,12.43-.97,14.26"/>
  <path class="cls-2" d="m78.65,31.56s.31,8.85-.1,17.1"/>
</svg>